<svg id="line_icons" height="512" viewBox="0 0 74 74" width="512" xmlns="http://www.w3.org/2000/svg" data-name="line icons"><path d="m11.083 48.527a1 1 0 0 1 -1-1v-37.361a7.088 7.088 0 0 1 14.176 0 1 1 0 0 1 -2 0 5.088 5.088 0 0 0 -10.176 0v37.361a1 1 0 0 1 -1 1z"/><path d="m34.375 48.527a1 1 0 0 1 -1-1v-37.361a7.089 7.089 0 0 1 14.177 0 1 1 0 1 1 -2 0 5.089 5.089 0 0 0 -10.177 0v37.361a1 1 0 0 1 -1 1z"/><path d="m34.375 20.9h-23.292a1 1 0 0 1 0-2h23.292a1 1 0 0 1 0 2z"/><path d="m34.375 34.92h-23.292a1 1 0 1 1 0-2h23.292a1 1 0 0 1 0 2z"/><path d="m58.453 54.479a15.15 15.15 0 0 1 -6.013-1.1 13.278 13.278 0 0 0 -5.325-.974 13.27 13.27 0 0 0 -5.323.974 15.126 15.126 0 0 1 -6.008 1.1 15.139 15.139 0 0 1 -6.011-1.1 13.266 13.266 0 0 0 -5.323-.974 13.27 13.27 0 0 0 -5.323.974 15.126 15.126 0 0 1 -6.008 1.1 15.12 15.12 0 0 1 -6.007-1.1 13.257 13.257 0 0 0 -5.32-.974 1 1 0 0 1 0-2 15.12 15.12 0 0 1 6.007 1.1 13.253 13.253 0 0 0 5.32.974 13.265 13.265 0 0 0 5.322-.974 15.127 15.127 0 0 1 6.009-1.1 15.137 15.137 0 0 1 6.01 1.1 13.272 13.272 0 0 0 5.324.974 13.265 13.265 0 0 0 5.322-.974 15.131 15.131 0 0 1 6.009-1.1 15.149 15.149 0 0 1 6.012 1.1 13.279 13.279 0 0 0 5.326.974 13.279 13.279 0 0 0 5.326-.974 15.15 15.15 0 0 1 6.013-1.1 1 1 0 0 1 0 2 13.279 13.279 0 0 0 -5.326.974 15.15 15.15 0 0 1 -6.013 1.1z"/><path d="m58.453 61.944a15.168 15.168 0 0 1 -6.013-1.1 13.257 13.257 0 0 0 -5.325-.975 13.27 13.27 0 0 0 -5.323.974 15.122 15.122 0 0 1 -6.008 1.1 15.157 15.157 0 0 1 -6.011-1.1 13.246 13.246 0 0 0 -5.323-.975 13.25 13.25 0 0 0 -5.323.975 15.14 15.14 0 0 1 -6.008 1.1 15.117 15.117 0 0 1 -6.007-1.1 13.257 13.257 0 0 0 -5.32-.974 1 1 0 0 1 0-2 15.12 15.12 0 0 1 6.007 1.1 13.251 13.251 0 0 0 5.32.975 13.262 13.262 0 0 0 5.322-.975 15.127 15.127 0 0 1 6.009-1.1 15.137 15.137 0 0 1 6.01 1.1 13.269 13.269 0 0 0 5.324.975 13.266 13.266 0 0 0 5.322-.975 15.127 15.127 0 0 1 6.009-1.1 15.149 15.149 0 0 1 6.012 1.1 13.276 13.276 0 0 0 5.326.975 13.276 13.276 0 0 0 5.326-.975 15.15 15.15 0 0 1 6.013-1.1 1 1 0 0 1 0 2 13.259 13.259 0 0 0 -5.326.975 15.168 15.168 0 0 1 -6.013 1.1z"/><path d="m58.453 69.408a15.15 15.15 0 0 1 -6.013-1.1 13.275 13.275 0 0 0 -5.325-.975 13.267 13.267 0 0 0 -5.323.975 15.126 15.126 0 0 1 -6.008 1.1 15.139 15.139 0 0 1 -6.011-1.1 13.263 13.263 0 0 0 -5.323-.975 13.267 13.267 0 0 0 -5.323.975 15.122 15.122 0 0 1 -6.008 1.1 15.12 15.12 0 0 1 -6.007-1.1 13.254 13.254 0 0 0 -5.32-.975 1 1 0 0 1 -1-1v-22.389a1 1 0 0 1 1-1 15.1 15.1 0 0 1 6.007 1.1 13.253 13.253 0 0 0 5.32.974 13.265 13.265 0 0 0 5.322-.974 15.106 15.106 0 0 1 6.009-1.1 15.116 15.116 0 0 1 6.01 1.1 13.272 13.272 0 0 0 5.324.974 13.265 13.265 0 0 0 5.322-.974 15.11 15.11 0 0 1 6.009-1.1 15.127 15.127 0 0 1 6.012 1.1 13.279 13.279 0 0 0 5.326.974 13.279 13.279 0 0 0 5.326-.974 15.129 15.129 0 0 1 6.013-1.1 1 1 0 0 1 1 1v22.393a1 1 0 0 1 -1 1 13.276 13.276 0 0 0 -5.326.975 15.15 15.15 0 0 1 -6.013 1.096zm-11.338-4.071a15.149 15.149 0 0 1 6.012 1.1 13.259 13.259 0 0 0 5.326.975 13.259 13.259 0 0 0 5.326-.975 14.863 14.863 0 0 1 5.013-1.074v-20.394a13 13 0 0 0 -4.326.95 15.15 15.15 0 0 1 -6.013 1.1 15.15 15.15 0 0 1 -6.013-1.1 13.275 13.275 0 0 0 -5.325-.975 13.267 13.267 0 0 0 -5.323.975 15.126 15.126 0 0 1 -6.008 1.1 15.139 15.139 0 0 1 -6.011-1.1 13.263 13.263 0 0 0 -5.323-.975 13.267 13.267 0 0 0 -5.323.975 15.126 15.126 0 0 1 -6.008 1.1 15.12 15.12 0 0 1 -6.007-1.1 12.974 12.974 0 0 0 -4.32-.95v20.39a14.8 14.8 0 0 1 5.008 1.075 13.253 13.253 0 0 0 5.32.974 13.265 13.265 0 0 0 5.322-.974 15.124 15.124 0 0 1 6.009-1.1 15.155 15.155 0 0 1 6.01 1.1 13.252 13.252 0 0 0 5.324.975 13.268 13.268 0 0 0 5.322-.974 15.124 15.124 0 0 1 6.008-1.098z"/></svg>